<svg version="1.1" viewBox="0.0 0.0 536.2309711286089 165.94225721784778" fill="none" stroke="none" stroke-linecap="square" stroke-miterlimit="10" xmlns:xlink="http://www.w3.org/1999/xlink" xmlns="http://www.w3.org/2000/svg"><clipPath id="p.0"><path d="m0 0l536.23096 0l0 165.94226l-536.23096 0l0 -165.94226z" clip-rule="nonzero"/></clipPath><g clip-path="url(#p.0)"><path fill="#000000" fill-opacity="0.0" d="m0 0l536.23096 0l0 165.94226l-536.23096 0z" fill-rule="evenodd"/><path fill="#000000" fill-opacity="0.0" d="m14.338583 25.333334l348.59842 0l0 115.27558l-348.59842 0z" fill-rule="evenodd"/><path fill="#000000" d="m55.21358 75.293335l0 -11.937504l-19.671875 0l0 11.937504l-7.718748 0l0 -28.625004l7.718748 0l0 10.421875l19.671875 0l0 -10.421875l7.71875 0l0 28.625004l-7.71875 0zm32.7132 -22.390629l0 22.390629l-7.734375 0l0 -22.390629l-12.140625 0l0 -6.234375l32.03125 0l0 6.234375l-12.15625 0zm53.64811 22.390629l0 -20.093754l-10.609375 20.093754l-7.4218674 0l-10.625 -20.093754l0 20.093754l-7.71875 0l0 -28.625004l10.484375 0l11.5625 21.671879l11.562492 -21.671879l10.453125 0l0 28.625004l-7.6875 0z" fill-rule="nonzero"/><path fill="#000000" d="m27.822958 126.49333l0 -28.625l7.718748 0l0 28.625l-7.718748 0zm43.94905 0l0 -16.03125q0 -1.609375 -0.28125 -2.90625q-0.265625 -1.3125 -1.015625 -2.234375q-0.734375 -0.921875 -2.0625 -1.4375q-1.3125 -0.515625 -3.390625 -0.515625q-1.5937538 0 -3.3281288 0.4375q-1.734375 0.421875 -3.453125 1.140625q-1.703125 0.703125 -3.265625 1.640625q-1.546875 0.9375 -2.75 1.953125l0 17.953125l-7.71875 0l0 -28.625l7.71875 0l0 3.921875q1.453125 -0.828125 3.09375 -1.65625q1.65625 -0.828125 3.5 -1.484375q1.859375 -0.671875 3.9375 -1.078125q2.0937538 -0.421875 4.406254 -0.421875q2.890625 0 5.171875 0.703125q2.28125 0.6875 3.859375 1.96875q1.59375 1.28125 2.4375 3.109375q0.84375 1.8125 0.84375 4.0625l0 19.5l-7.703125 0zm32.56743 -22.390625l0 22.390625l-7.734375 0l0 -22.390625l-12.140625 0l0 -6.234375l32.03125 0l0 6.234375l-12.15625 0zm49.17936 20.96875q-3.53125 1.171875 -7.046875 1.671875q-3.5 0.515625 -7.15625 0.515625q-4.6875 0 -8.34375 -1.0q-3.6562424 -1.015625 -6.1562424 -2.921875q-2.5 -1.921875 -3.8125 -4.6875q-1.3125 -2.78125 -1.3125 -6.28125q0 -3.25 1.3125 -6.03125q1.328125 -2.78125 3.75 -4.828125q2.4375 -2.046875 5.8749924 -3.203125q3.4375 -1.15625 7.65625 -1.15625q3.90625 0 7.140625 1.046875q3.234375 1.046875 5.546875 3.109375q2.328125 2.0625 3.609375 5.09375q1.28125 3.015625 1.28125 6.953125l0 1.921875l-28.187492 0q0.35936737 1.34375 1.2187424 2.46875q0.875 1.125 2.34375 1.921875q1.484375 0.78125 3.640625 1.21875q2.15625 0.4375 5.15625 0.4375q2.125 0 4.171875 -0.25q2.046875 -0.265625 3.8125 -0.6875q1.765625 -0.4375 3.1875 -0.953125q1.4375 -0.515625 2.3125 -1.046875l0 6.6875zm-5.328125 -15.46875q-0.109375 -1.0625 -0.640625 -2.1875q-0.53125 -1.140625 -1.6875 -2.0625q-1.140625 -0.921875 -3.0 -1.515625q-1.84375 -0.59375 -4.609375 -0.59375q-2.609375 0 -4.515625 0.65625q-1.890625 0.640625 -3.171875 1.609375q-1.28125 0.953125 -1.984375 2.0625q-0.7031174 1.09375 -0.9062424 2.03125l20.515617 0zm41.031586 -5.25q-0.3125 -0.109375 -0.90625 -0.28125q-0.59375 -0.171875 -1.390625 -0.34375q-0.796875 -0.1875 -1.75 -0.3125q-0.9375 -0.125 -1.9375 -0.125q-2.078125 0 -3.890625 0.515625q-1.796875 0.5 -3.359375 1.34375q-1.5625 0.84375 -2.90625 1.921875q-1.34375 1.078125 -2.46875 2.203125l0 17.21875l-7.71875 0l0 -28.625l7.71875 0l0 4.65625q1.390625 -1.046875 2.859375 -2.015625q1.46875 -0.96875 3.0625 -1.71875q1.59375 -0.75 3.359375 -1.1875q1.78125 -0.453125 3.765625 -0.453125q0.75 0 1.53125 0.078125q0.78125 0.0625 1.515625 0.171875q0.734375 0.09375 1.375 0.21875q0.65625 0.125 1.140625 0.25l0 6.484375l0 0zm24.096542 22.140625l-9.0 0l-14.484375 -28.625l8.625 0l10.421875 21.546875l10.390625 -21.546875l8.625 0l-14.578125 28.625zm19.266647 0l0 -28.625l7.71875 0l0 28.625l-7.71875 0zm48.58969 -1.421875q-3.53125 1.171875 -7.046875 1.671875q-3.5 0.515625 -7.15625 0.515625q-4.6875 0 -8.34375 -1.0q-3.6562653 -1.015625 -6.1562653 -2.921875q-2.5 -1.921875 -3.8125 -4.6875q-1.3125 -2.78125 -1.3125 -6.28125q0 -3.25 1.3125 -6.03125q1.328125 -2.78125 3.75 -4.828125q2.4375 -2.046875 5.8750153 -3.203125q3.4375 -1.15625 7.65625 -1.15625q3.90625 0 7.140625 1.046875q3.234375 1.046875 5.546875 3.109375q2.328125 2.0625 3.609375 5.09375q1.28125 3.015625 1.28125 6.953125l0 1.921875l-28.187515 0q0.359375 1.34375 1.2187653 2.46875q0.875 1.125 2.34375 1.921875q1.484375 0.78125 3.640625 1.21875q2.15625 0.4375 5.15625 0.4375q2.125 0 4.171875 -0.25q2.046875 -0.265625 3.8125 -0.6875q1.765625 -0.4375 3.1875 -0.953125q1.4375 -0.515625 2.3125 -1.046875l0 6.6875zm-5.328125 -15.46875q-0.109375 -1.0625 -0.640625 -2.1875q-0.53125 -1.140625 -1.6875 -2.0625q-1.140625 -0.921875 -3.0 -1.515625q-1.84375 -0.59375 -4.609375 -0.59375q-2.609375 0 -4.515625 0.65625q-1.890625 0.640625 -3.171875 1.609375q-1.28125 0.953125 -1.984375 2.0625q-0.70314026 1.09375 -0.90626526 2.03125l20.51564 0zm42.291992 -11.734375l7.3125 19.875l7.921875 -19.875l8.015625 0l-11.5 28.625l-8.578125 0l-7.484375 -19.25l-7.453125 19.25l-8.578125 0l-11.515625 -28.625l8.03125 0l7.75 19.453125l7.484375 -19.453125l8.59375 0z" fill-rule="nonzero"/><path fill="#000000" fill-opacity="0.0" d="m396.74316 11.081365l93.14923 0c2.4414062E-4 0 4.8828125E-4 9.8228455E-5 6.4086914E-4 2.7275085E-4c1.8310547E-4 1.745224E-4 2.746582E-4 4.119873E-4 2.746582E-4 6.5898895E-4l-9.1552734E-4 93.1483c0 10.28923 -8.341064 18.630295 -18.63031 18.630295l-93.14923 0l0 0c-5.187988E-4 0 -9.1552734E-4 -4.196167E-4 -9.1552734E-4 -9.3078613E-4l9.1552734E-4 -93.1483l0 0c0 -10.289227 8.341064 -18.630295 18.63031 -18.630295z" fill-rule="evenodd"/><path stroke="#000000" stroke-width="12.0" stroke-linejoin="round" stroke-linecap="butt" d="m396.74316 11.081365l93.14923 0c2.4414062E-4 0 4.8828125E-4 9.8228455E-5 6.4086914E-4 2.7275085E-4c1.8310547E-4 1.745224E-4 2.746582E-4 4.119873E-4 2.746582E-4 6.5898895E-4l-9.1552734E-4 93.1483c0 10.28923 -8.341064 18.630295 -18.63031 18.630295l-93.14923 0l0 0c-5.187988E-4 0 -9.1552734E-4 -4.196167E-4 -9.1552734E-4 -9.3078613E-4l9.1552734E-4 -93.1483l0 0c0 -10.289227 8.341064 -18.630295 18.63031 -18.630295z" fill-rule="evenodd"/><path fill="#000000" fill-opacity="0.0" d="m412.74316 27.081366l93.14923 0c2.4414062E-4 0 4.8828125E-4 9.727478E-5 6.4086914E-4 2.7275085E-4c1.8310547E-4 1.7356873E-4 2.746582E-4 4.1007996E-4 2.746582E-4 6.580353E-4l-9.1552734E-4 93.1483c0 10.289223 -8.341064 18.630287 -18.63031 18.630287l-93.14923 0l0 0c-5.187988E-4 0 -9.1552734E-4 -4.119873E-4 -9.1552734E-4 -9.3078613E-4l9.1552734E-4 -93.1483l0 0c0 -10.289227 8.341064 -18.630293 18.63031 -18.630293z" fill-rule="evenodd"/><path stroke="#cccccc" stroke-width="12.0" stroke-linejoin="round" stroke-linecap="butt" d="m412.74316 27.081366l93.14923 0c2.4414062E-4 0 4.8828125E-4 9.727478E-5 6.4086914E-4 2.7275085E-4c1.8310547E-4 1.7356873E-4 2.746582E-4 4.1007996E-4 2.746582E-4 6.580353E-4l-9.1552734E-4 93.1483c0 10.289223 -8.341064 18.630287 -18.63031 18.630287l-93.14923 0l0 0c-5.187988E-4 0 -9.1552734E-4 -4.119873E-4 -9.1552734E-4 -9.3078613E-4l9.1552734E-4 -93.1483l0 0c0 -10.289227 8.341064 -18.630293 18.63031 -18.630293z" fill-rule="evenodd"/><path fill="#000000" fill-opacity="0.0" d="m428.74316 43.081364l93.14923 0c2.4414062E-4 0 4.8828125E-4 9.918213E-5 6.713867E-4 2.746582E-4c1.8310547E-4 1.7547607E-4 2.4414062E-4 4.119873E-4 2.4414062E-4 6.5612793E-4l-9.1552734E-4 93.148315c0 10.289215 -8.341064 18.63028 -18.63031 18.63028l-93.14923 0l0 0c-5.187988E-4 0 -9.1552734E-4 -4.119873E-4 -9.1552734E-4 -9.3078613E-4l9.1552734E-4 -93.1483l0 0c0 -10.289227 8.341064 -18.630295 18.63031 -18.630295z" fill-rule="evenodd"/><path stroke="#c9daf8" stroke-width="12.0" stroke-linejoin="round" stroke-linecap="butt" d="m428.74316 43.081364l93.14923 0c2.4414062E-4 0 4.8828125E-4 9.918213E-5 6.713867E-4 2.746582E-4c1.8310547E-4 1.7547607E-4 2.4414062E-4 4.119873E-4 2.4414062E-4 6.5612793E-4l-9.1552734E-4 93.148315c0 10.289215 -8.341064 18.63028 -18.63031 18.63028l-93.14923 0l0 0c-5.187988E-4 0 -9.1552734E-4 -4.119873E-4 -9.1552734E-4 -9.3078613E-4l9.1552734E-4 -93.1483l0 0c0 -10.289227 8.341064 -18.630295 18.63031 -18.630295z" fill-rule="evenodd"/></g></svg>